<svg width="0" height="0" class="hidden">
  <symbol version="1.1" xmlns="http://www.w3.org/2000/svg" viewBox="0 0 32 32" id="fb">
    <title>fb</title>
    <path d="M13.040 29.333l-0.040-11.667h-5v-5h5v-3.333c0-4.493 2.787-6.667 6.8-6.667 1.92 0 3.573 0.133 4.053 0.2v4.707h-2.787c-2.173 0-2.6 1.040-2.6 2.56v2.533h6.2l-1.667 5h-4.533v11.667h-5.427z"></path>
  </symbol>
  <symbol version="1.1" xmlns="http://www.w3.org/2000/svg" viewBox="0 0 32 32" id="inst">
    <title>inst</title>
    <path  d="M17.36 2.667c2.4 0 2.907 0.027 4.133 0.080 1.413 0.067 2.387 0.293 3.227 0.627 0.88 0.333 1.627 0.8 2.36 1.533 0.747 0.733 1.2 1.48 1.547 2.36 0.333 0.84 0.547 1.813 0.613 3.24 0.067 1.267 0.080 1.76 0.080 4.427v2.133c0 2.667-0.013 3.16-0.080 4.427-0.023 1.165-0.246 2.27-0.636 3.294l0.022-0.067c-0.347 0.88-0.8 1.627-1.533 2.36-0.747 0.747-1.493 1.2-2.373 1.547-0.84 0.333-1.813 0.547-3.227 0.613-1.267 0.067-1.773 0.080-4.44 0.080h-2.12c-2.667 0-3.16-0.013-4.44-0.080-1.165-0.023-2.27-0.246-3.294-0.636l0.067 0.022c-0.923-0.353-1.71-0.874-2.359-1.533l-0.001-0.001c-0.666-0.652-1.192-1.444-1.532-2.329l-0.015-0.045c-0.367-0.956-0.59-2.062-0.613-3.217l-0-0.010c-0.053-1.042-0.083-2.263-0.083-3.49 0-0.226 0.001-0.452 0.003-0.677l-0 0.034v-2.733c0-2.4 0.027-2.907 0.080-4.133 0.067-1.413 0.293-2.387 0.613-3.227 0.347-0.88 0.8-1.627 1.547-2.36 0.645-0.667 1.434-1.19 2.317-1.519l0.043-0.014c0.955-0.371 2.060-0.599 3.215-0.626l0.012-0c1.227-0.053 1.733-0.080 4.133-0.080zM17.387 5.067h-2.787c-2.307 0-2.8 0.027-4 0.080-1.293 0.053-2 0.267-2.467 0.453-0.627 0.24-1.067 0.533-1.533 1s-0.76 0.907-1 1.533c-0.173 0.467-0.4 1.173-0.453 2.48-0.053 1.2-0.080 1.68-0.080 4v2.773c0 2.32 0.027 2.8 0.080 4 0.053 1.293 0.267 2 0.453 2.467 0.24 0.627 0.533 1.067 1 1.533s0.907 0.76 1.533 1c0.467 0.187 1.173 0.4 2.48 0.453 1.293 0.067 1.76 0.080 4.64 0.080h1.48c2.893 0 3.347-0.013 4.653-0.080 1.293-0.053 2-0.267 2.467-0.453 0.627-0.24 1.067-0.533 1.533-1s0.76-0.907 1-1.533c0.187-0.467 0.4-1.173 0.453-2.467 0.067-1.307 0.080-1.76 0.080-4.653v-1.467c0-2.893-0.013-3.36-0.080-4.667-0.053-1.293-0.267-2-0.453-2.467-0.226-0.601-0.567-1.114-0.999-1.532l-0.001-0.001c-0.42-0.433-0.932-0.774-1.505-0.991l-0.028-0.009c-0.732-0.276-1.578-0.441-2.462-0.453l-0.005-0c-1.028-0.052-2.231-0.082-3.442-0.082-0.196 0-0.392 0.001-0.588 0.002l0.030-0zM16 9.147c3.781 0 6.847 3.065 6.847 6.847s-3.065 6.847-6.847 6.847v0c-3.781 0-6.847-3.065-6.847-6.847s3.065-6.847 6.847-6.847v0zM16 11.547c-2.456 0-4.447 1.991-4.447 4.447s1.991 4.447 4.447 4.447v0c2.456 0 4.447-1.991 4.447-4.447s-1.991-4.447-4.447-4.447v0zM23.107 7.28c0.884 0 1.6 0.716 1.6 1.6s-0.716 1.6-1.6 1.6v0c-0.884 0-1.6-0.716-1.6-1.6s0.716-1.6 1.6-1.6v0z"></path>
  </symbol>
  <symbol version="1.1" xmlns="http://www.w3.org/2000/svg" viewBox="0 0 32 32" id="pinterest">
    <title>pinterest</title>
    <path  d="M16 2.667c-7.343 0.027-13.286 5.986-13.286 13.333 0 5.599 3.452 10.393 8.343 12.368l0.089 0.032c-0.133-1.053-0.227-2.667 0.040-3.827l1.56-6.627s-0.4-0.8-0.4-1.973c0-1.853 1.080-3.227 2.427-3.227 1.133 0 1.693 0.853 1.693 1.867 0 1.147-0.733 2.853-1.12 4.44-0.32 1.333 0.667 2.413 1.987 2.413 2.373 0 4.187-2.493 4.187-6.093 0-3.2-2.293-5.413-5.573-5.413-0.076-0.004-0.164-0.006-0.253-0.006-3.189 0-5.773 2.585-5.773 5.773 0 0.002 0 0.004 0 0.006v-0c0 1.147 0.44 2.373 0.987 3.040 0.107 0.133 0.12 0.253 0.080 0.387l-0.373 1.507c-0.053 0.24-0.2 0.307-0.44 0.187-1.68-0.787-2.72-3.2-2.72-5.173 0-4.2 3.067-8.053 8.827-8.053 4.613 0 8.227 3.28 8.227 7.693 0 4.6-2.907 8.293-6.933 8.293-1.333 0-2.613-0.707-3.040-1.533l-0.84 3.16c-0.431 1.337-0.992 2.498-1.688 3.563l0.034-0.056c1.17 0.372 2.516 0.587 3.911 0.587 7.364 0 13.333-5.97 13.333-13.333 0-7.347-5.942-13.306-13.282-13.333h-0.003z"></path>
  </symbol>
  <symbol version="1.1" xmlns="http://www.w3.org/2000/svg" viewBox="0 0 32 32" id="tw">
    <title>tw</title>
    <path d="M29.333 7.84c-1 0.493-2 0.667-3.173 0.827 1.173-0.667 2-1.667 2.333-3-1.005 0.608-2.176 1.071-3.423 1.322l-0.070 0.012c-1.031-1.014-2.44-1.646-3.996-1.667l-0.004-0c-2.84 0-5.333 2.507-5.333 5.507 0 0.493 0 0.827 0.173 1.16-4.578-0.178-8.619-2.337-11.311-5.639l-0.022-0.028c-0.425 0.726-0.676 1.598-0.676 2.529 0 0.109 0.003 0.218 0.010 0.326l-0.001-0.015c0.034 1.878 1.009 3.521 2.473 4.481l0.021 0.013c-0.84 0-1.667-0.333-2.507-0.667 0 2.667 1.84 4.84 4.333 5.333-0.493 0.173-1 0.173-1.493 0.173-0.333 0-0.667 0-1-0.173 0.667 2.173 2.667 3.84 5.173 3.84-1.8 1.455-4.116 2.335-6.637 2.335-0.071 0-0.142-0.001-0.213-0.002l0.011 0h-1.333c2.365 1.509 5.236 2.429 8.316 2.493l0.017 0c10 0 15.507-8.333 15.507-15.507v-0.667c1.147-0.79 2.093-1.787 2.803-2.944l0.024-0.042z"></path>
  </symbol>
    <symbol xmlns="http://www.w3.org/2000/svg" viewBox="0 0 45 45" id="dark">
    <path d="M22.8374 17.2125C23.9499 17.2125 25.0375 17.5424 25.9625 18.1605C26.8875 18.7786 27.6085 19.6571 28.0342 20.6849C28.46 21.7127 28.5714 22.8437 28.3543 23.9349C28.1373 25.026 27.6015 26.0283 26.8149 26.815C26.0282 27.6016 25.0259 28.1374 23.9348 28.3544C22.8436 28.5715 21.7126 28.4601 20.6848 28.0343C19.657 27.6086 18.7785 26.8876 18.1604 25.9626C17.5423 25.0376 17.2124 23.95 17.2124 22.8375C17.2143 21.3462 17.8075 19.9166 18.862 18.8621C19.9165 17.8076 21.3461 17.2144 22.8374 17.2125ZM22.8374 14.4C21.1686 14.4 19.5373 14.8949 18.1498 15.822C16.7622 16.7491 15.6808 18.0669 15.0422 19.6086C14.4036 21.1504 14.2365 22.8469 14.562 24.4836C14.8876 26.1203 15.6912 27.6237 16.8712 28.8037C18.0512 29.9837 19.5546 30.7873 21.1913 31.1129C22.828 31.4384 24.5245 31.2713 26.0663 30.6327C27.608 29.9941 28.9258 28.9127 29.8529 27.5251C30.7801 26.1376 31.2749 24.5063 31.2749 22.8375C31.2749 20.5997 30.386 18.4536 28.8036 16.8713C27.2213 15.2889 25.0752 14.4 22.8374 14.4Z"></path>
    <path d="M7.58521 9.58078L9.57364 7.59094L14.504 12.5212L12.5155 14.5097L7.58521 9.58078Z"></path>
    <path d="M2.8125 21.1008H9.84375V23.9133H2.8125V21.1008Z"></path>
    <path d="M7.58521 35.4333L12.5155 30.503L14.504 32.4928L9.57364 37.4217L7.58521 35.4333Z"></path>
    <path d="M21.0938 35.1633H23.9062V42.1945H21.0938V35.1633Z"></path>
    <path d="M30.4973 32.4928L32.4858 30.503L37.4161 35.4333L35.4276 37.4217L30.4973 32.4928Z"></path>
    <path d="M35.1562 21.1008H42.1875V23.9133H35.1562V21.1008Z"></path>
    <path d="M30.4973 12.5212L35.4276 7.59094L37.4161 9.58078L32.4858 14.5097L30.4973 12.5212Z"></path>
    <path d="M21.0938 2.81953H23.9062V9.85078H21.0938V2.81953Z"></path>
  </symbol>
  <symbol xmlns="http://www.w3.org/2000/svg" viewBox="0 0 41 40" id="light">
    <path d="M21.4528 40C15.7066 40 10.315 37.8174 6.27098 33.8545C2.22701 29.8915 5.02421e-07 24.6074 5.02421e-07 18.9761C-0.00085731 15.0913 1.09674 11.2823 3.17098 7.97181C5.24521 4.66132 8.21494 1.97886 11.7505 0.222165C12.1143 0.0404498 12.5246 -0.032245 12.9302 0.0131555C13.3359 0.058556 13.7189 0.220041 14.0315 0.477451C14.344 0.734861 14.5723 1.07679 14.6878 1.46057C14.8033 1.84434 14.8009 2.25294 14.6809 2.63538C13.672 5.82896 13.5728 9.23201 14.3941 12.4768C15.2154 15.7216 16.9259 18.6847 19.3408 21.046C21.0739 22.757 23.136 24.1141 25.4078 25.0388C27.6796 25.9635 30.116 26.4374 32.576 26.433C34.4579 26.4345 36.3292 26.1578 38.1269 25.6125C38.5172 25.4948 38.9342 25.4924 39.3258 25.6056C39.7175 25.7188 40.0665 25.9425 40.3291 26.2488C40.5918 26.5552 40.7566 26.9306 40.8029 27.3282C40.8492 27.7257 40.775 28.1279 40.5895 28.4843C38.7969 31.9492 36.0597 34.8596 32.6817 36.8923C29.3036 38.9251 25.4169 40.0008 21.4528 40V40ZM11.6763 3.31431C8.93463 4.94908 6.66986 7.24958 5.10105 9.99327C3.53225 12.737 2.71252 15.831 2.72115 18.9761C2.72115 29.0982 11.1241 37.3333 21.4528 37.3333C24.6621 37.3418 27.8193 36.5384 30.619 35.001C33.4187 33.4636 35.7662 31.2441 37.4343 28.5573C35.8413 28.9186 34.2114 29.1007 32.5762 29.1C29.7587 29.1053 26.9682 28.5628 24.3661 27.5041C21.764 26.4453 19.4021 24.8913 17.417 22.9319C14.8381 20.4094 12.9578 17.2845 11.9533 13.8522C10.9489 10.4199 10.8536 6.79329 11.6763 3.31481V3.31431Z"></path>
  </symbol>
</svg>